<svg width="272" height="125" viewBox="0 0 272 125" fill="none" xmlns="http://www.w3.org/2000/svg">
<g clip-path="url(#clip0_63_169)">
<path d="M119.969 30.2628C115.979 30.451 113.254 31.0878 110.872 32.0238C108.407 32.9845 106.317 34.2738 104.238 36.3603C102.159 38.4468 100.879 40.5378 99.9252 43.0068C99.0019 45.394 98.3764 48.121 98.2002 52.1133C98.0239 56.1055 97.9849 57.3888 98.0044 67.5723C98.0239 77.7558 98.0689 79.0323 98.2624 83.0328C98.4529 87.022 99.0874 89.746 100.023 92.1288C100.986 94.594 102.273 96.6828 104.361 98.7625C106.448 100.842 108.537 102.12 111.012 103.075C113.397 103.997 116.125 104.625 120.117 104.8C124.108 104.975 125.393 105.015 135.573 104.996C145.754 104.976 147.036 104.931 151.035 104.742C155.035 104.552 157.745 103.913 160.128 102.981C162.594 102.017 164.684 100.731 166.762 98.6433C168.84 96.5553 170.12 94.4628 171.073 91.9923C171.997 89.6073 172.625 86.8795 172.798 82.891C172.973 78.8883 173.014 77.6103 172.995 67.4283C172.975 57.2463 172.929 55.9698 172.74 51.9708C172.55 47.9718 171.915 45.256 170.979 42.8718C170.016 40.4065 168.729 38.3193 166.643 36.238C164.556 34.1568 162.462 32.878 159.993 31.927C157.606 31.0038 154.88 30.3745 150.888 30.202C146.897 30.0295 145.612 29.9853 135.428 30.0048C125.244 30.0243 123.969 30.0678 119.969 30.2628ZM120.407 98.0538C116.751 97.8948 114.765 97.2873 113.442 96.7788C111.69 96.1038 110.442 95.2878 109.124 93.982C107.805 92.6763 106.995 91.4238 106.311 89.6755C105.798 88.3525 105.179 86.3695 105.008 82.7133C104.822 78.7615 104.783 77.575 104.761 67.5633C104.739 57.5515 104.778 56.3665 104.951 52.4133C105.107 48.76 105.718 46.7725 106.226 45.4503C106.901 43.696 107.714 42.4503 109.023 41.1325C110.331 39.8148 111.58 39.0033 113.33 38.3193C114.651 37.8033 116.634 37.1898 120.289 37.0158C124.244 36.8283 125.429 36.7908 135.439 36.769C145.449 36.7473 146.637 36.7848 150.594 36.9588C154.247 37.1178 156.235 37.723 157.556 38.2338C159.309 38.9088 160.556 39.7195 161.874 41.0305C163.191 42.3415 164.004 43.5858 164.688 45.3393C165.204 46.657 165.818 48.6393 165.99 52.2963C166.179 56.251 166.221 57.4368 166.239 67.4463C166.257 77.4558 166.222 78.6445 166.049 82.5963C165.889 86.2525 165.283 88.2385 164.774 89.563C164.099 91.3143 163.285 92.563 161.976 93.88C160.666 95.197 159.419 96.0085 157.668 96.6925C156.348 97.2078 154.363 97.8228 150.711 97.9968C146.757 98.1828 145.572 98.2218 135.558 98.2435C125.544 98.2653 124.362 98.2248 120.408 98.0538M150.978 47.458C150.979 48.3481 151.245 49.2177 151.74 49.957C152.236 50.6962 152.94 51.2718 153.763 51.611C154.586 51.9501 155.491 52.0377 156.363 51.8624C157.236 51.6872 158.037 51.2572 158.665 50.6266C159.294 49.9961 159.721 49.1934 159.893 48.3201C160.065 47.4468 159.974 46.5421 159.632 45.7205C159.29 44.8988 158.711 44.197 157.97 43.704C157.229 43.2109 156.359 42.9487 155.469 42.9505C154.275 42.9529 153.132 43.4291 152.29 44.2744C151.448 45.1196 150.976 46.2648 150.978 47.458ZM116.245 67.5378C116.266 78.1728 124.903 86.7745 135.536 86.7543C146.169 86.734 154.776 78.0978 154.756 67.4628C154.736 56.8278 146.097 48.2238 135.462 48.2448C124.828 48.2658 116.225 56.9043 116.245 67.5378ZM123 67.5243C122.995 65.0519 123.723 62.6337 125.093 60.5753C126.462 58.517 128.411 56.9109 130.693 55.9603C132.976 55.0097 135.489 54.7571 137.914 55.2347C140.34 55.7122 142.57 56.8983 144.321 58.643C146.073 60.3878 147.268 62.6127 147.755 65.0366C148.242 67.4604 148 69.9743 147.058 72.2603C146.117 74.5463 144.518 76.5017 142.465 77.8793C140.412 79.2569 137.997 79.9949 135.525 79.9998C133.883 80.0032 132.257 79.6832 130.739 79.0581C129.221 78.433 127.841 77.515 126.678 76.3565C125.515 75.198 124.591 73.8217 123.96 72.3062C123.329 70.7908 123.003 69.1659 123 67.5243Z" fill="black"/>
</g>
<g clip-path="url(#clip1_63_169)">
<path fill-rule="evenodd" clip-rule="evenodd" d="M64.0721 40.8906C57.0227 33.8712 47.6471 30.0036 37.6575 30C17.0731 30 0.320513 46.6583 0.31335 67.1343C0.309769 73.68 2.03051 80.0691 5.29831 85.6997L0 104.945L19.7966 99.7813C25.2506 102.741 31.3923 104.299 37.6415 104.301H37.6575C58.2383 104.301 74.9929 87.6406 75 67.1646C75.0035 57.241 71.1233 47.9119 64.0721 40.8924V40.8906ZM37.6575 98.0292H37.645C32.0762 98.0275 26.6133 96.5387 21.8469 93.727L20.7134 93.0576L8.96542 96.122L12.1007 84.7309L11.363 83.5628C8.25633 78.6483 6.61437 72.9678 6.61796 67.1362C6.62512 50.1182 20.5486 36.2716 37.6702 36.2716C45.9604 36.2751 53.7531 39.4893 59.6135 45.3246C65.4742 51.1581 68.699 58.9148 68.6954 67.1611C68.6881 84.1809 54.7648 98.0275 37.6575 98.0275V98.0292ZM54.6823 74.9124C53.7494 74.4477 49.1621 72.2039 48.306 71.8941C47.4502 71.5842 46.829 71.4294 46.2075 72.3588C45.5863 73.2885 43.7975 75.3789 43.2531 75.9968C42.7088 76.6164 42.1644 76.6931 41.2315 76.2282C40.2987 75.7635 37.2923 74.7841 33.7273 71.6233C30.9538 69.1624 29.0806 66.1247 28.5365 65.1951C27.9921 64.2657 28.4792 63.7635 28.9446 63.3023C29.3635 62.8856 29.8775 62.2179 30.3448 61.6765C30.8123 61.1352 30.9662 60.7471 31.2777 60.1291C31.5894 59.5094 31.4335 58.9682 31.2008 58.5033C30.9679 58.0386 29.1023 53.4711 28.3233 51.6139C27.5658 49.8047 26.796 50.0505 26.2248 50.0202C25.6804 49.9935 25.0592 49.9882 24.436 49.9882C23.8129 49.9882 22.8029 50.2197 21.9471 51.1492C21.0912 52.0786 18.6811 54.324 18.6811 58.8897C18.6811 63.4554 22.0242 67.8698 22.4915 68.4895C22.9587 69.1092 29.0717 78.4809 38.431 82.5017C40.6569 83.4578 42.3954 84.0294 43.7508 84.4568C45.9856 85.1637 48.0196 85.0641 49.6275 84.8254C51.42 84.5584 55.1479 82.58 55.925 80.4128C56.7021 78.2457 56.7021 76.3867 56.4694 76.0003C56.2367 75.6139 55.6135 75.3806 54.6806 74.9159L54.6823 74.9124Z" fill="#111B21"/>
</g>
<defs>
<clipPath id="clip0_63_169">
<rect width="75" height="75" fill="white" transform="translate(98 30)"/>
</clipPath>
<clipPath id="clip1_63_169">
<rect width="75" height="75" fill="white" transform="translate(0 30)"/>
</clipPath>
</defs>
</svg>
